<?xml version="1.0" standalone="no"?>
<!DOCTYPE svg PUBLIC "-//W3C//DTD SVG 20010904//EN"
 "http://www.w3.org/TR/2001/REC-SVG-20010904/DTD/svg10.dtd">
<svg version="1.0" xmlns="http://www.w3.org/2000/svg"
 width="1384.000000pt" height="1384.000000pt" viewBox="0 0 1384.000000 1384.000000"
 preserveAspectRatio="xMidYMid meet">
<g transform="translate(0.000000,1384.000000) scale(0.100000,-0.100000)"
fill="#000000" stroke="none">
<path d="M9527 13334 c-1 -1 -42 -5 -92 -8 -49 -4 -97 -9 -105 -11 -8 -2 -47
-6 -85 -9 -39 -4 -80 -8 -90 -10 -11 -2 -54 -7 -96 -10 -42 -4 -87 -9 -100
-11 -43 -7 -123 -17 -169 -21 -25 -2 -61 -6 -80 -9 -19 -3 -57 -7 -85 -10 -27
-3 -66 -8 -85 -10 -43 -6 -133 -16 -180 -20 -19 -2 -51 -6 -70 -9 -36 -5 -89
-12 -175 -21 -70 -8 -126 -15 -155 -20 -14 -2 -52 -7 -85 -11 -33 -3 -71 -7
-85 -9 -33 -5 -126 -15 -173 -20 -21 -2 -56 -6 -77 -10 -21 -4 -56 -8 -77 -10
-21 -2 -56 -6 -78 -9 -22 -3 -58 -8 -80 -11 -23 -3 -50 -7 -61 -9 -11 -2 -50
-7 -86 -10 -37 -4 -75 -8 -85 -10 -10 -2 -49 -7 -85 -10 -37 -4 -76 -9 -88
-11 -12 -2 -51 -7 -88 -11 -36 -3 -73 -7 -82 -9 -29 -5 -125 -18 -155 -21 -16
-1 -30 -3 -30 -4 0 0 -18 -3 -40 -5 -22 -2 -60 -6 -85 -10 -25 -4 -63 -9 -85
-11 -84 -9 -111 -13 -140 -18 -16 -3 -58 -8 -93 -11 -35 -4 -73 -8 -85 -11
-37 -7 -90 -14 -147 -19 -30 -2 -64 -7 -75 -9 -12 -2 -50 -7 -86 -10 -36 -4
-76 -9 -90 -11 -29 -5 -113 -16 -154 -20 -16 -1 -49 -6 -72 -9 -24 -3 -60 -8
-80 -11 -48 -6 -122 -16 -148 -20 -11 -1 -49 -6 -85 -10 -36 -3 -78 -9 -95
-12 -16 -2 -46 -6 -65 -8 -19 -2 -48 -6 -65 -9 -16 -2 -59 -8 -95 -11 -36 -4
-74 -9 -85 -11 -35 -7 -99 -16 -135 -19 -51 -5 -121 -14 -150 -20 -14 -3 -50
-8 -80 -10 -58 -6 -113 -13 -145 -19 -11 -2 -63 -9 -115 -16 -52 -6 -106 -13
-120 -16 -33 -6 -95 -14 -150 -20 -25 -2 -58 -6 -75 -9 -16 -2 -52 -7 -80 -11
-27 -3 -59 -8 -70 -10 -11 -3 -40 -6 -65 -9 -25 -2 -59 -6 -75 -9 -17 -2 -50
-7 -75 -11 -25 -4 -58 -9 -75 -12 -16 -2 -46 -6 -65 -8 -19 -2 -35 -4 -35 -5
0 -1 -13 -3 -30 -4 -31 -3 -100 -13 -145 -21 -14 -2 -43 -7 -65 -10 -23 -3
-52 -7 -65 -10 -14 -3 -50 -9 -80 -15 -33 -6 -58 -17 -65 -28 -14 -24 -123
-258 -144 -312 -10 -25 -60 -137 -111 -250 -89 -198 -162 -364 -270 -615 -54
-126 -130 -302 -248 -570 -89 -204 -500 -1161 -559 -1300 -63 -151 -227 -536
-253 -595 -42 -94 -287 -671 -325 -765 -18 -44 -64 -154 -103 -245 -226 -533
-665 -1594 -691 -1669 -23 -69 -15 -114 32 -175 75 -100 281 -374 322 -430 45
-61 215 -286 228 -301 4 -5 39 -53 78 -105 39 -52 79 -106 90 -120 11 -14 45
-59 76 -100 31 -41 60 -76 65 -78 4 -2 8 -8 8 -13 0 -5 26 -42 58 -82 31 -40
65 -84 75 -98 9 -13 92 -123 183 -244 91 -121 179 -238 195 -260 81 -111 249
-333 290 -383 25 -32 54 -70 64 -87 11 -16 22 -32 25 -35 4 -3 26 -32 51 -65
24 -33 46 -62 49 -65 3 -3 73 -95 154 -205 82 -110 155 -205 162 -211 8 -6 11
-14 7 -17 -3 -4 -2 -7 3 -7 6 0 34 -34 64 -76 47 -66 107 -144 203 -269 13
-16 121 -159 239 -316 118 -157 222 -294 231 -305 9 -10 29 -37 46 -59 16 -22
84 -112 151 -200 68 -88 167 -218 220 -290 54 -71 172 -227 262 -346 89 -118
190 -251 222 -295 33 -43 76 -97 95 -120 53 -60 103 -121 163 -199 l54 -70
110 1 c99 1 228 9 308 19 61 8 169 19 291 30 39 3 81 8 95 10 14 2 53 7 88 10
35 4 73 8 85 11 12 2 54 6 94 9 40 4 83 8 95 11 34 6 97 14 148 18 25 2 66 7
90 10 43 5 78 9 185 21 28 3 66 8 85 10 19 3 62 7 95 10 33 3 71 7 85 10 36 6
110 17 145 20 17 2 57 6 90 10 33 4 76 8 95 10 19 2 35 4 35 5 0 1 14 3 30 5
17 2 51 6 78 9 26 3 68 8 95 11 26 3 81 9 122 15 96 13 196 25 285 35 28 3 71
8 95 10 25 3 63 7 85 9 22 3 54 7 70 10 17 3 56 8 88 10 32 3 61 7 65 10 4 2
41 7 83 10 41 4 86 9 99 11 14 3 48 7 75 10 28 2 68 7 90 11 78 11 91 13 153
19 35 4 72 8 82 10 10 2 47 6 82 10 35 3 74 8 88 10 22 4 84 11 160 20 14 1
45 6 70 9 100 15 127 18 163 21 21 2 57 6 80 10 74 12 91 14 155 20 35 4 73 8
85 11 30 5 82 12 157 19 36 4 76 8 90 10 49 8 96 14 150 20 30 3 62 8 70 10 8
2 44 7 80 10 36 4 73 9 83 11 10 2 48 6 85 10 37 3 69 7 72 9 3 2 30 6 60 10
30 3 71 8 90 10 49 7 121 16 148 20 12 2 49 6 82 10 33 4 70 9 82 10 13 2 43
6 68 9 25 4 63 9 85 12 22 4 54 8 70 10 17 1 48 6 70 9 22 3 54 8 70 9 17 2
46 6 65 10 19 3 55 8 80 11 25 3 63 7 85 10 38 5 54 7 135 20 46 6 104 14 160
21 25 3 62 10 83 15 44 12 48 19 219 409 50 113 123 280 164 372 41 92 74 170
74 172 0 3 11 29 24 58 13 29 61 139 106 243 45 105 90 208 100 230 10 22 36
83 58 135 54 128 105 245 130 300 11 25 45 106 76 180 32 74 70 164 86 200 16
36 47 110 71 165 23 55 95 224 159 375 65 151 155 363 200 470 45 107 127 301
182 430 55 129 122 287 148 350 26 63 98 234 160 380 144 341 224 530 412 985
259 626 378 934 378 979 0 13 -22 52 -49 88 -28 36 -83 115 -124 174 -60 89
-721 978 -840 1130 -17 23 -39 52 -47 64 -17 24 -462 620 -498 665 -13 17 -68
91 -124 165 -55 74 -104 137 -107 140 -4 3 -15 18 -24 33 -10 16 -25 36 -32
45 -8 9 -45 58 -82 108 -37 50 -78 104 -90 120 -12 16 -50 67 -84 114 -35 47
-82 110 -106 140 -55 70 -55 70 -75 101 -9 14 -23 32 -30 40 -8 8 -28 35 -46
61 -18 25 -38 52 -45 60 -7 7 -67 85 -132 173 -66 88 -124 165 -130 172 -5 7
-16 19 -22 27 -7 8 -13 18 -13 21 0 3 -19 29 -42 59 -24 29 -52 66 -63 81 -11
15 -47 63 -80 105 -33 42 -70 90 -81 106 -92 124 -401 534 -418 555 -12 14
-30 38 -41 53 -11 15 -78 105 -149 199 -72 95 -151 201 -178 237 -76 102 -104
139 -171 227 -34 45 -97 129 -140 186 -73 99 -81 106 -125 117 -39 9 -116 12
-125 4z m-377 -471 c0 -8 -79 -157 -176 -330 -97 -174 -185 -334 -197 -357
-11 -22 -29 -52 -38 -66 -9 -14 -76 -131 -149 -260 -105 -186 -239 -410 -254
-428 -2 -1 -27 3 -57 8 -30 6 -72 13 -94 16 -22 3 -53 9 -70 14 -16 4 -46 11
-65 14 -42 7 -69 12 -136 26 -28 6 -64 13 -80 16 -24 4 -116 23 -345 69 -9 2
-33 6 -54 9 -20 4 -40 8 -44 10 -3 3 -26 7 -51 11 -25 4 -48 9 -52 11 -21 14
-8 -31 48 -154 13 -29 24 -61 24 -72 0 -11 5 -20 10 -20 6 0 10 -7 10 -15 0
-15 4 -25 32 -77 16 -32 34 -68 48 -100 10 -21 22 -28 59 -34 58 -9 63 -10
120 -23 25 -6 57 -13 71 -15 14 -3 36 -7 50 -10 14 -3 50 -10 80 -16 97 -19
99 -20 94 -33 -3 -8 -70 -62 -149 -121 l-145 -108 27 -47 c15 -25 35 -58 45
-72 17 -26 41 -80 38 -88 -1 -2 3 -7 8 -10 14 -8 82 -108 82 -120 0 -4 7 -14
14 -21 12 -9 52 16 220 144 183 140 226 168 226 151 0 -3 18 -142 40 -308 21
-166 53 -412 71 -547 32 -245 37 -264 84 -316 36 -39 89 -101 123 -142 35 -43
53 -63 160 -180 96 -105 154 -164 158 -160 2 2 -1 35 -7 73 -10 70 -145 1138
-175 1379 -10 83 -12 132 -6 138 10 10 18 6 192 -107 407 -265 619 -404 960
-630 151 -100 397 -262 545 -360 149 -98 300 -199 337 -224 38 -25 76 -51 85
-56 10 -6 132 -87 271 -180 139 -94 270 -181 292 -195 56 -35 493 -327 505
-337 6 -4 251 -169 545 -365 294 -196 573 -383 620 -414 47 -32 102 -68 123
-82 20 -14 37 -31 37 -39 0 -53 -214 -274 -1891 -1952 -1667 -1666 -1748
-1746 -1758 -1735 -5 5 -16 68 -25 139 -9 72 -18 141 -21 155 -4 23 -75 564
-106 803 -7 53 -15 97 -19 97 -4 0 -29 -20 -56 -45 -27 -25 -80 -73 -118 -107
-99 -89 -196 -189 -196 -202 -1 -6 25 -216 56 -467 32 -250 55 -463 51 -471
-6 -16 -27 -9 -397 149 -58 25 -143 60 -190 79 -47 19 -97 41 -112 49 -25 14
-27 14 -53 -17 -79 -96 -101 -123 -115 -138 -8 -8 -26 -31 -40 -50 -13 -19
-30 -41 -37 -48 -7 -7 -13 -17 -13 -21 0 -5 -12 -20 -26 -35 -15 -14 -22 -26
-16 -26 6 0 43 -15 84 -34 139 -64 209 -96 213 -96 2 0 32 -13 67 -29 35 -16
119 -54 188 -85 169 -77 174 -80 182 -91 13 -17 9 -25 -18 -35 -14 -6 -45 -24
-69 -40 -24 -17 -46 -30 -50 -30 -4 0 -26 -13 -50 -30 -24 -16 -47 -30 -52
-30 -5 0 -26 -12 -48 -27 -22 -15 -45 -28 -52 -29 -6 -1 -27 -13 -45 -26 -18
-12 -40 -24 -48 -26 -8 -2 -22 -10 -30 -17 -8 -7 -36 -25 -62 -39 -27 -14 -69
-38 -95 -53 -27 -14 -61 -34 -78 -43 -16 -9 -48 -27 -70 -41 -22 -14 -51 -30
-65 -37 -14 -7 -50 -26 -80 -43 -30 -17 -71 -40 -90 -51 -19 -11 -57 -32 -85
-47 -27 -16 -66 -37 -86 -48 -19 -10 -49 -29 -66 -41 -17 -12 -37 -22 -44 -22
-6 0 -27 -11 -45 -25 -18 -14 -36 -25 -40 -25 -4 0 -26 -12 -49 -26 -39 -25
-68 -69 -105 -159 -7 -16 -16 -38 -21 -47 -5 -10 -9 -23 -9 -30 0 -7 -7 -26
-16 -43 -17 -30 -53 -121 -81 -205 -9 -25 -24 -63 -34 -86 -30 -64 -24 -67 49
-27 37 20 85 46 107 57 22 10 47 25 55 31 8 7 51 32 95 55 44 24 99 54 122 67
116 64 142 78 188 103 28 15 70 39 95 53 25 14 63 36 85 47 22 12 63 34 90 50
28 16 68 38 90 50 22 11 63 34 90 50 28 17 68 39 90 51 22 11 58 30 80 43 22
12 65 36 95 53 30 16 80 43 110 60 96 53 194 106 240 131 25 13 52 30 61 38 8
8 22 14 30 14 8 0 25 9 39 20 14 11 31 20 39 20 8 0 22 6 30 14 24 22 262 146
279 146 5 0 38 -35 73 -77 35 -43 66 -80 69 -83 4 -3 52 -66 107 -140 56 -74
159 -211 230 -304 123 -163 175 -233 211 -286 9 -14 21 -30 27 -37 5 -6 28
-37 50 -68 22 -32 129 -177 238 -323 108 -146 194 -269 190 -273 -8 -7 -55
-15 -155 -25 -57 -6 -93 -11 -93 -14 0 -1 -13 -3 -30 -5 -155 -14 -223 -22
-260 -29 -16 -4 -57 -9 -90 -12 -75 -7 -120 -12 -165 -18 -19 -2 -60 -7 -90
-11 -30 -3 -62 -8 -70 -10 -8 -2 -46 -7 -83 -10 -37 -3 -84 -8 -105 -11 -20
-4 -50 -8 -67 -9 -31 -3 -111 -13 -154 -20 -14 -3 -54 -7 -90 -11 -36 -3 -72
-7 -81 -9 -9 -2 -43 -6 -75 -10 -69 -7 -90 -10 -200 -24 -128 -17 -167 -21
-215 -26 -25 -2 -62 -6 -82 -9 -68 -10 -102 -15 -163 -21 -33 -3 -71 -8 -85
-11 -14 -2 -50 -6 -80 -9 -30 -3 -71 -7 -90 -10 -70 -11 -96 -15 -145 -20 -73
-8 -137 -16 -165 -21 -14 -2 -43 -6 -65 -8 -22 -3 -65 -8 -95 -12 -30 -3 -73
-8 -95 -10 -46 -4 -109 -12 -145 -19 -14 -2 -50 -7 -80 -9 -30 -3 -71 -8 -91
-11 -19 -3 -55 -7 -80 -10 -24 -2 -44 -4 -44 -5 0 -1 -13 -3 -30 -5 -16 -2
-52 -6 -80 -10 -27 -4 -66 -8 -85 -10 -19 -2 -35 -4 -35 -5 0 -1 -16 -3 -35
-5 -19 -1 -55 -5 -80 -9 -25 -3 -67 -8 -95 -11 -48 -5 -67 -8 -165 -21 -25 -3
-58 -7 -75 -8 -33 -3 -129 -16 -158 -22 -10 -2 -48 -6 -85 -10 -36 -3 -75 -8
-87 -10 -11 -2 -47 -6 -80 -9 -33 -3 -71 -7 -85 -10 -99 -15 -173 -25 -230
-30 -25 -3 -63 -8 -85 -11 -22 -4 -65 -7 -95 -8 -74 -1 -73 18 5 62 33 19 78
45 100 58 22 12 60 34 85 47 25 13 68 37 95 52 28 16 68 38 90 51 22 12 63 34
90 49 28 15 57 33 65 39 8 7 29 20 45 28 17 9 53 28 80 43 54 31 123 69 195
108 25 13 68 37 95 52 28 15 66 36 85 47 19 11 58 33 85 49 28 16 69 38 93 49
37 17 42 23 37 42 -26 90 -39 126 -56 160 -5 9 -12 35 -15 58 -4 22 -10 40
-15 40 -5 0 -9 9 -9 19 0 11 -4 22 -9 25 -5 4 -12 24 -16 47 -6 37 -8 39 -24
25 -10 -9 -23 -16 -30 -16 -7 0 -25 -8 -39 -18 -15 -10 -63 -38 -107 -62 -44
-24 -92 -52 -107 -62 -16 -11 -28 -16 -28 -12 0 3 -15 -5 -33 -19 -18 -14 -49
-32 -68 -41 -19 -9 -56 -29 -84 -45 -27 -16 -79 -44 -115 -62 -36 -18 -78 -42
-95 -53 -16 -12 -47 -30 -70 -42 -79 -41 -253 -136 -330 -180 -22 -13 -63 -35
-92 -50 -29 -14 -57 -32 -64 -40 -6 -8 -18 -14 -26 -14 -8 0 -27 -8 -41 -18
-15 -11 -40 -26 -57 -34 -16 -9 -52 -28 -80 -43 -62 -34 -123 -68 -152 -83
-13 -7 -33 -17 -45 -24 -13 -7 -37 -19 -54 -28 -16 -9 -44 -26 -61 -38 -17
-12 -36 -22 -42 -22 -5 0 -27 -11 -47 -25 -20 -14 -42 -25 -48 -25 -6 0 -22
-9 -36 -20 -14 -11 -32 -20 -41 -20 -9 0 -24 -9 -34 -20 -10 -11 -24 -20 -31
-20 -7 0 -29 -10 -49 -21 -39 -23 -46 -21 -63 26 -41 114 -85 246 -192 575
-67 206 -141 434 -165 505 -23 72 -66 204 -94 295 -29 91 -61 190 -71 220 -10
30 -49 150 -85 265 -37 116 -73 228 -80 250 -8 22 -43 135 -80 250 -36 116
-74 235 -84 265 -10 30 -25 78 -34 105 -25 82 -136 431 -179 560 -22 66 -41
129 -44 140 -2 11 -19 67 -38 125 -18 58 -50 159 -71 225 -20 66 -43 138 -50
160 -14 39 -64 199 -145 465 -23 74 -54 176 -70 225 -16 50 -45 144 -65 210
-20 66 -45 147 -55 180 -23 73 -34 135 -26 135 8 0 163 -61 221 -86 22 -10 42
-19 45 -19 3 -1 29 -13 59 -26 178 -78 367 -156 371 -152 5 5 -1 9 -85 58 -50
29 -84 51 -135 85 -14 9 -46 27 -72 40 -27 13 -48 27 -48 32 0 4 -8 8 -19 8
-10 0 -24 7 -31 15 -7 8 -19 15 -26 15 -8 0 -14 5 -14 10 0 6 -8 10 -18 10
-10 0 -28 8 -42 17 -35 25 -153 83 -167 83 -7 0 -13 3 -13 8 0 8 -73 42 -90
42 -6 0 -10 5 -10 10 0 6 -5 10 -12 10 -10 0 -93 37 -201 91 -22 10 -46 19
-55 19 -10 0 -37 11 -61 25 -23 14 -49 25 -57 25 -8 0 -37 11 -64 24 -28 14
-65 28 -83 32 -17 3 -43 14 -56 22 -13 9 -33 18 -45 19 -12 2 -50 15 -85 29
-73 29 -151 34 -226 16 -27 -7 -61 -15 -75 -18 -14 -3 -43 -10 -65 -16 -22 -6
-49 -12 -60 -14 -11 -1 -21 -3 -22 -3 -2 -1 -5 -1 -8 -2 -2 0 -34 -9 -71 -19
-36 -11 -82 -22 -102 -25 -20 -3 -53 -10 -72 -15 -19 -5 -46 -11 -60 -13 -14
-3 -43 -10 -65 -15 -22 -6 -56 -14 -75 -17 -19 -3 -53 -11 -75 -16 -22 -6 -53
-13 -70 -16 -60 -10 -70 -11 -70 -13 0 -2 -19 -6 -120 -24 -92 -16 -165 -21
-165 -10 0 7 135 333 179 434 33 74 54 123 261 610 83 195 174 405 201 467 27
62 49 115 49 117 0 3 11 29 24 58 13 29 35 80 49 113 14 33 49 114 78 180 28
66 67 158 86 205 19 47 45 108 58 135 12 28 125 289 250 580 125 292 233 544
240 560 8 17 26 59 41 95 14 36 35 83 45 105 10 22 40 92 67 155 86 202 239
553 272 624 52 114 52 132 10 -449 -50 -678 -102 -1357 -124 -1615 -6 -58 -27
-313 -51 -615 -8 -99 -19 -232 -25 -295 -10 -121 -37 -428 -49 -567 -7 -87 -3
-95 37 -74 43 23 92 41 110 41 11 0 22 3 24 8 4 8 51 31 128 60 30 12 69 27
85 33 17 7 33 12 37 11 16 -3 16 -3 78 798 25 329 75 951 120 1500 11 135 27
331 35 435 29 367 70 846 115 1355 5 58 14 159 20 225 5 66 14 158 20 205 5
47 10 89 10 94 0 8 122 2 138 -7 4 -3 30 -8 57 -11 28 -4 66 -11 85 -16 19 -5
53 -12 75 -15 33 -5 66 -11 145 -30 3 -1 28 -5 55 -10 28 -4 59 -10 70 -12 19
-4 60 -12 145 -28 19 -3 53 -10 75 -15 22 -5 56 -12 75 -15 19 -3 53 -10 75
-15 22 -5 56 -12 75 -15 19 -3 123 -23 230 -45 107 -21 209 -41 225 -44 17 -3
84 -16 150 -30 66 -13 134 -27 150 -29 17 -3 41 -8 55 -12 14 -3 39 -8 55 -11
17 -3 59 -11 95 -19 52 -11 212 -43 355 -71 11 -2 43 -8 70 -14 28 -6 59 -12
70 -14 11 -2 180 -37 375 -76 195 -40 393 -80 440 -90 l85 -17 27 46 c15 25
28 52 28 59 0 13 20 65 40 102 4 9 11 31 15 50 4 19 14 45 22 57 9 13 12 23 7
23 -4 0 -3 5 4 12 23 23 14 46 -20 50 -18 3 -103 19 -188 36 -85 17 -166 33
-180 36 -14 2 -45 9 -70 14 -25 6 -62 13 -84 16 -21 4 -41 8 -45 10 -3 2 -22
7 -41 10 -19 3 -64 12 -100 20 -36 9 -83 18 -105 21 -22 3 -53 10 -70 15 -16
5 -52 12 -80 16 -27 3 -53 8 -57 10 -4 3 -42 11 -85 19 -43 8 -100 20 -128 25
-27 6 -63 13 -80 16 -16 2 -43 9 -60 13 -16 5 -46 12 -65 15 -37 6 -68 12
-110 22 -14 3 -38 7 -55 10 -16 3 -124 25 -240 49 -115 25 -221 47 -235 49
-14 3 -34 7 -45 10 -11 2 -54 12 -95 21 -41 9 -82 18 -90 20 -8 2 -18 4 -22 4
-5 1 -8 7 -8 15 0 10 19 16 63 22 34 4 69 8 77 10 19 3 94 13 140 19 19 2 60
7 90 10 30 3 66 8 80 10 14 2 39 6 55 9 17 3 55 8 85 11 81 8 131 15 165 22
31 6 41 7 140 18 33 4 71 8 85 10 14 2 52 6 85 9 33 4 85 10 115 16 30 5 86
12 125 15 38 4 72 8 75 10 3 1 32 6 65 10 142 16 196 23 235 29 38 7 121 18
155 21 17 1 30 3 30 4 0 1 21 4 46 6 25 2 61 7 80 10 19 4 50 8 69 10 19 2 54
6 78 9 50 7 97 13 172 21 30 4 69 9 85 11 17 3 46 7 65 9 34 3 73 8 163 21 23
4 56 8 72 10 17 1 50 5 75 8 178 24 199 26 335 41 79 9 128 15 155 20 32 6 91
13 155 20 79 9 128 15 157 21 15 3 49 7 75 9 27 2 66 6 88 9 55 9 103 16 150
22 22 2 57 7 78 9 40 5 79 10 172 20 32 4 68 9 80 11 11 2 45 6 75 9 30 3 66
7 80 9 14 3 52 8 85 11 33 3 91 10 129 16 37 5 98 12 134 15 37 3 68 7 70 9 2
2 24 3 48 3 33 0 44 -4 44 -15z m564 -273 c51 -63 174 -225 275 -360 101 -135
200 -265 221 -290 20 -25 43 -56 52 -70 10 -14 69 -92 133 -175 223 -289 290
-377 325 -425 19 -26 62 -83 95 -125 33 -43 76 -99 95 -126 19 -26 67 -89 106
-141 60 -77 222 -292 376 -497 18 -25 38 -49 44 -55 6 -6 17 -23 24 -36 7 -14
33 -50 57 -80 23 -30 72 -95 108 -145 37 -49 72 -97 79 -106 8 -9 94 -124 191
-255 98 -132 184 -244 191 -250 8 -6 14 -14 14 -18 0 -3 42 -60 93 -127 50
-67 99 -131 107 -143 19 -27 157 -210 192 -256 74 -95 188 -254 188 -262 0
-27 -19 -15 -790 497 -234 155 -636 422 -895 593 -258 171 -474 315 -480 319
-11 9 -1401 937 -1449 968 -18 11 -89 58 -159 105 -144 97 -144 96 -102 197
33 82 247 488 365 693 21 36 81 144 135 240 103 183 237 418 262 458 14 23 15
23 35 5 12 -10 62 -70 112 -133z m3236 -5876 c0 -36 -247 -659 -460 -1159 -38
-88 -127 -297 -198 -465 -71 -168 -193 -453 -270 -635 -265 -625 -420 -990
-472 -1115 -29 -69 -60 -143 -70 -165 -10 -22 -41 -96 -70 -165 -28 -69 -73
-174 -100 -235 -26 -60 -76 -177 -110 -260 -154 -369 -244 -575 -250 -575 -5
0 -80 97 -135 175 -16 23 -42 57 -57 76 -15 19 -66 86 -114 149 -49 63 -91
117 -94 120 -4 3 -47 57 -96 120 -49 64 -109 141 -134 173 -25 32 -54 71 -65
87 -11 15 -99 133 -196 262 -96 128 -206 277 -243 331 l-67 98 29 34 c67 75
422 433 1727 1737 754 753 1383 1382 1399 1398 33 34 46 38 46 14z m-10649
-499 c20 -60 69 -211 108 -335 40 -124 88 -272 107 -330 19 -58 40 -125 48
-150 47 -151 190 -598 246 -770 16 -47 43 -132 60 -190 18 -58 45 -143 60
-190 15 -47 53 -166 84 -265 32 -99 63 -198 71 -220 7 -22 27 -87 45 -145 17
-58 37 -121 44 -140 7 -19 20 -57 29 -85 8 -27 34 -111 57 -185 23 -74 54
-173 70 -220 15 -47 44 -141 65 -210 21 -69 42 -129 46 -135 5 -5 9 -16 9 -25
0 -8 18 -71 41 -140 22 -69 42 -132 44 -140 1 -8 17 -58 33 -110 118 -372 119
-388 18 -257 -31 39 -79 99 -107 132 -28 33 -83 103 -123 155 -39 52 -128 169
-196 258 -69 90 -134 176 -145 192 -11 15 -72 97 -137 182 -64 84 -222 293
-351 464 -129 172 -239 318 -246 325 -11 13 -96 127 -459 609 -85 113 -165
219 -177 235 -25 32 -72 95 -131 173 -19 26 -56 74 -81 107 -24 33 -105 141
-180 240 -74 99 -192 257 -262 350 -292 388 -401 538 -401 552 0 16 46 38 100
47 39 8 65 14 65 16 0 1 9 3 21 5 11 3 88 20 170 40 82 20 158 38 169 40 11 2
20 4 20 5 0 1 9 3 20 4 11 2 54 12 96 24 42 12 92 24 110 27 19 3 52 11 74 17
22 6 54 12 70 14 17 2 44 9 60 14 17 5 47 12 68 16 22 3 60 12 85 19 25 8 49
12 53 9 4 -2 10 0 14 6 4 6 10 8 14 6 4 -3 29 1 54 9 26 8 47 12 47 9 0 -3 6
-2 12 2 7 5 19 9 28 10 38 6 75 13 75 14 0 2 10 3 79 14 21 3 40 7 42 8 1 2
31 3 65 3 l63 0 37 -110z"/>
<path d="M6892 11429 c-50 -10 -80 -44 -87 -98 -4 -25 -16 -71 -26 -101 -11
-30 -29 -104 -40 -164 -11 -60 -26 -118 -34 -130 -8 -11 -15 -29 -15 -39 0
-10 -9 -31 -19 -46 -11 -15 -22 -45 -26 -66 -4 -22 -14 -51 -21 -65 -19 -37
-64 -139 -64 -148 0 -7 -20 -54 -70 -169 -12 -29 -27 -53 -31 -53 -5 0 -9 -8
-9 -19 0 -10 -9 -29 -19 -43 -11 -13 -23 -36 -26 -50 -4 -14 -15 -35 -26 -47
-10 -11 -19 -24 -19 -30 0 -5 -16 -37 -35 -71 -19 -34 -35 -68 -35 -75 0 -7
-7 -15 -15 -18 -8 -4 -21 -21 -29 -39 -9 -18 -21 -42 -28 -52 -7 -11 -41 -62
-75 -114 -35 -51 -63 -98 -63 -102 0 -5 -18 -30 -40 -55 -22 -25 -40 -50 -40
-55 0 -5 -16 -25 -35 -44 -19 -20 -35 -40 -35 -46 0 -5 -4 -10 -9 -10 -5 0
-12 -14 -16 -30 -4 -17 -15 -35 -26 -40 -10 -6 -19 -16 -19 -22 0 -7 -19 -31
-42 -53 -55 -52 -88 -92 -88 -105 0 -6 -4 -10 -10 -10 -5 0 -10 -11 -10 -24 0
-18 -11 -30 -42 -48 -23 -13 -48 -33 -54 -46 -11 -22 -28 -43 -66 -80 -10 -9
-18 -20 -18 -24 0 -11 -130 -138 -141 -138 -5 0 -9 -9 -9 -19 0 -11 -9 -23
-20 -26 -11 -3 -20 -9 -20 -13 0 -9 -56 -72 -63 -72 -8 0 -57 -49 -57 -56 0
-3 -16 -21 -35 -40 -19 -18 -35 -38 -35 -43 0 -5 -9 -13 -20 -16 -11 -3 -20
-15 -20 -26 0 -10 -5 -19 -11 -19 -6 0 -47 -36 -91 -80 -45 -44 -85 -80 -90
-80 -4 0 -8 -5 -8 -11 0 -13 -23 -35 -96 -93 -27 -22 -60 -50 -73 -63 -13 -13
-28 -23 -32 -23 -5 0 -9 -9 -9 -20 0 -13 -13 -26 -43 -39 -23 -11 -80 -56
-124 -100 -46 -45 -91 -81 -101 -81 -11 0 -25 -7 -32 -15 -7 -8 -18 -15 -26
-15 -7 0 -16 -9 -19 -20 -3 -11 -13 -20 -20 -20 -8 0 -18 -6 -22 -13 -4 -7
-25 -23 -45 -36 -21 -12 -38 -26 -38 -29 0 -4 -15 -13 -32 -21 -18 -8 -55 -30
-83 -51 -27 -20 -61 -43 -75 -50 -13 -7 -31 -19 -38 -27 -7 -7 -20 -13 -28
-13 -8 0 -14 -4 -14 -9 0 -5 -22 -18 -48 -29 -27 -12 -54 -28 -61 -36 -6 -7
-34 -23 -61 -35 -27 -12 -52 -26 -55 -31 -3 -6 -15 -10 -26 -10 -11 0 -31 -11
-45 -25 -14 -14 -31 -25 -37 -25 -19 0 -67 -24 -67 -32 0 -5 -9 -8 -20 -8 -12
0 -29 -8 -40 -18 -10 -9 -51 -28 -90 -42 -40 -14 -74 -28 -77 -32 -2 -5 -12
-8 -21 -8 -9 0 -30 -7 -46 -15 -15 -8 -37 -15 -47 -15 -11 0 -19 -4 -19 -10 0
-5 -5 -10 -11 -10 -5 0 -29 -8 -52 -19 -23 -10 -61 -22 -84 -26 -22 -3 -49
-15 -59 -26 -9 -10 -29 -19 -43 -19 -15 0 -36 -7 -48 -15 -12 -8 -72 -24 -135
-34 -62 -11 -136 -29 -164 -39 -28 -11 -71 -22 -95 -26 -56 -9 -85 -32 -96
-76 -16 -58 16 -140 54 -140 7 0 21 -4 31 -8 39 -20 182 -61 247 -72 82 -14
106 -22 200 -65 39 -18 89 -38 113 -44 23 -7 42 -16 42 -21 0 -6 9 -10 20 -10
11 0 34 -8 52 -18 18 -11 51 -22 73 -26 22 -4 42 -11 45 -14 3 -4 39 -23 80
-42 41 -19 77 -38 78 -42 2 -5 15 -8 28 -8 13 0 29 -9 36 -20 7 -11 20 -20 29
-20 16 0 122 -51 144 -70 5 -5 22 -11 37 -15 15 -4 29 -13 32 -21 3 -8 15 -14
26 -14 11 0 20 -4 20 -8 0 -5 19 -17 43 -27 23 -10 62 -33 86 -52 24 -18 49
-33 56 -33 6 0 25 -12 42 -27 17 -16 57 -41 89 -57 32 -17 73 -45 92 -63 18
-18 39 -33 46 -33 7 0 26 -12 42 -27 30 -29 54 -45 90 -62 11 -5 27 -16 35
-23 8 -8 22 -19 31 -24 9 -5 43 -34 75 -65 32 -30 78 -65 103 -76 27 -12 52
-33 60 -50 19 -35 35 -53 50 -53 7 0 21 -11 32 -25 11 -14 25 -25 33 -25 7 0
15 -7 19 -15 3 -8 11 -15 17 -15 14 0 139 -125 139 -140 0 -5 7 -10 15 -10 17
0 115 -93 115 -109 0 -6 5 -11 12 -11 12 0 138 -129 138 -142 0 -4 5 -8 11 -8
12 0 109 -97 109 -110 0 -11 118 -130 129 -130 5 0 14 -14 21 -30 7 -17 27
-45 45 -63 18 -18 35 -42 39 -55 4 -12 14 -22 23 -22 22 0 73 -56 73 -80 0
-11 5 -20 10 -20 6 0 10 -5 10 -12 0 -7 9 -21 20 -33 21 -21 98 -105 129 -141
10 -11 21 -31 24 -45 4 -13 25 -44 47 -68 22 -24 40 -49 40 -56 0 -8 13 -26
28 -42 16 -15 39 -48 53 -73 13 -25 27 -46 32 -48 4 -2 7 -9 7 -16 0 -7 14
-28 30 -46 16 -18 30 -39 30 -46 0 -7 6 -19 13 -26 20 -22 52 -71 70 -108 10
-19 27 -48 37 -65 11 -16 26 -44 34 -61 8 -17 19 -35 25 -38 6 -4 11 -16 11
-27 0 -11 11 -37 25 -57 14 -20 25 -44 25 -52 0 -8 9 -21 20 -28 11 -7 20 -21
20 -31 0 -11 15 -45 33 -78 18 -32 43 -87 56 -123 12 -36 31 -82 42 -103 10
-22 19 -45 19 -52 0 -7 6 -18 14 -24 8 -7 17 -31 21 -54 4 -23 13 -52 21 -64
8 -12 14 -29 14 -38 0 -8 4 -15 9 -15 5 0 13 -15 16 -33 4 -17 11 -37 16 -43
6 -7 19 -58 30 -115 11 -56 23 -107 28 -113 5 -6 17 -43 26 -83 25 -105 77
-142 168 -120 30 8 42 18 57 50 11 23 20 53 20 68 0 15 4 31 10 34 6 3 10 14
10 24 0 10 6 31 14 47 7 16 19 65 25 109 14 90 31 155 41 155 4 0 10 18 14 40
3 23 13 43 21 46 9 4 17 26 21 55 4 27 10 49 15 49 4 0 13 17 20 38 6 20 15
42 19 47 5 6 16 36 25 67 9 31 28 83 44 115 15 32 33 73 40 90 8 18 17 33 22
33 5 0 9 8 9 18 0 10 9 28 20 40 11 12 20 30 20 41 0 12 15 45 34 74 19 29 49
84 66 120 17 37 35 67 40 67 4 0 11 11 14 24 6 26 78 136 109 168 9 10 17 22
17 27 0 14 68 123 95 151 14 14 25 30 25 36 0 9 33 51 88 112 12 14 22 33 22
43 0 11 4 19 8 19 5 0 17 16 28 35 10 19 27 38 36 41 10 3 18 9 18 14 0 5 18
27 40 49 22 22 40 44 40 50 0 6 5 11 10 11 6 0 10 11 10 25 0 17 9 29 28 39
29 15 72 60 72 76 0 6 7 10 15 10 9 0 20 11 25 25 5 14 14 25 20 25 5 0 10 7
10 15 0 9 7 18 15 21 8 3 17 14 20 25 4 10 11 19 16 19 14 0 108 102 109 118
0 6 4 12 10 12 12 0 60 48 60 60 0 6 6 10 14 10 7 0 28 18 47 41 42 51 47 56
98 98 23 19 41 40 41 47 0 8 4 14 10 14 5 0 26 16 47 35 21 19 58 53 82 75 24
22 47 40 52 40 5 0 9 6 9 13 0 17 36 48 89 79 23 13 41 28 41 33 0 6 15 18 33
28 18 10 41 34 52 53 13 24 28 37 47 41 15 3 28 9 28 14 0 5 5 9 12 9 6 0 18
6 27 14 9 8 41 37 72 65 31 28 61 51 67 51 7 0 12 4 12 9 0 5 15 16 33 26 76
40 87 47 87 55 0 6 25 24 56 41 31 18 58 38 61 45 3 8 37 30 77 50 39 20 82
47 97 60 14 13 29 24 35 24 5 0 36 18 68 40 33 21 98 58 145 82 47 24 91 48
96 54 6 7 23 15 38 18 16 4 38 16 50 26 11 11 31 20 44 20 13 0 23 4 23 8 0 5
10 13 23 19 12 6 69 33 127 61 58 27 130 57 160 67 30 9 78 28 105 42 28 14
64 29 80 33 17 5 64 23 105 40 109 48 111 48 165 55 62 8 225 59 285 90 55 27
69 65 54 142 -7 38 -37 60 -95 69 -24 4 -66 16 -94 26 -27 11 -95 28 -150 38
-55 10 -116 25 -135 33 -19 9 -47 18 -62 21 -15 3 -33 13 -42 21 -8 8 -35 18
-60 21 -25 4 -46 10 -46 15 0 4 -10 11 -22 14 -13 4 -39 14 -58 22 -62 26 -74
31 -135 53 -84 30 -175 73 -175 82 0 4 -8 8 -19 8 -10 0 -29 8 -42 19 -13 10
-38 22 -56 25 -17 4 -37 14 -43 22 -13 15 -170 94 -189 94 -6 0 -11 6 -11 14
0 8 -19 21 -42 31 -24 9 -45 20 -48 24 -3 4 -26 20 -52 35 -27 15 -48 31 -48
35 0 4 -18 15 -40 25 -22 10 -40 21 -40 26 0 4 -17 15 -37 23 -21 8 -49 27
-62 41 -14 14 -30 26 -36 26 -6 0 -36 23 -66 50 -30 28 -66 53 -81 57 -16 3
-28 9 -28 13 0 4 -16 15 -35 26 -19 10 -38 27 -41 36 -3 10 -9 18 -13 18 -4 0
-26 18 -49 40 -22 22 -46 40 -52 40 -5 0 -10 5 -10 10 0 6 -11 10 -23 10 -17
0 -29 10 -42 34 -10 19 -27 40 -38 48 -11 7 -33 24 -48 38 -44 39 -58 50 -64
50 -12 0 -65 55 -65 67 0 7 -4 13 -8 13 -5 0 -26 18 -48 40 -21 22 -45 40 -51
40 -7 0 -13 4 -13 8 0 13 -32 47 -57 61 -13 6 -23 16 -23 22 0 6 -21 32 -47
58 -27 26 -62 64 -80 84 -18 20 -36 37 -40 37 -4 0 -19 15 -33 32 -14 18 -35
41 -47 52 -13 11 -23 23 -23 27 0 8 -113 125 -127 130 -5 2 -21 26 -36 52 -16
26 -37 53 -48 60 -10 6 -19 20 -19 30 0 9 -11 22 -24 27 -31 11 -76 60 -76 82
0 9 -24 43 -52 75 -29 32 -61 66 -70 77 -10 11 -20 27 -23 37 -3 9 -12 20 -20
23 -8 3 -21 20 -28 38 -8 18 -26 47 -41 63 -35 40 -39 45 -53 78 -7 15 -20 30
-28 33 -17 7 -85 117 -85 138 0 7 -13 25 -30 41 -16 16 -30 34 -30 41 0 7 -11
26 -25 43 -24 27 -62 95 -122 213 -13 26 -27 50 -32 53 -5 3 -12 19 -16 35 -4
17 -11 30 -16 30 -5 0 -9 7 -9 15 0 8 -4 15 -10 15 -5 0 -10 11 -10 25 0 14
-7 28 -15 31 -8 3 -17 16 -20 27 -7 26 -87 190 -96 197 -4 3 -10 21 -14 40 -3
19 -15 54 -26 77 -10 24 -19 50 -19 58 0 8 -4 15 -10 15 -5 0 -14 19 -21 43
-6 23 -26 74 -44 112 -41 89 -51 119 -71 230 -9 50 -19 95 -23 100 -4 6 -13
30 -20 55 -6 25 -16 54 -20 65 -5 11 -13 32 -19 46 -12 31 -69 49 -120 38z
m53 -826 c4 -21 17 -74 30 -118 12 -44 33 -125 45 -180 12 -55 31 -123 42
-151 18 -48 28 -100 46 -234 5 -30 16 -70 25 -89 9 -19 17 -44 17 -55 0 -12 9
-41 21 -65 11 -25 26 -72 33 -105 8 -34 22 -84 33 -112 11 -28 28 -84 38 -125
10 -41 21 -78 25 -84 4 -5 10 -28 14 -50 8 -45 56 -168 68 -173 5 -2 8 -24 8
-48 0 -24 4 -44 8 -44 11 0 32 -45 32 -66 0 -8 11 -39 24 -67 13 -29 29 -68
36 -87 29 -83 35 -98 56 -145 12 -27 28 -66 34 -85 7 -19 27 -64 45 -100 18
-36 38 -82 44 -102 7 -21 16 -38 20 -38 7 0 20 -27 61 -133 12 -31 35 -74 49
-95 15 -20 33 -53 41 -72 18 -47 94 -122 152 -151 55 -28 165 -82 228 -112 25
-12 47 -25 50 -28 3 -4 32 -19 65 -34 33 -14 76 -34 95 -44 19 -11 50 -22 68
-26 17 -3 32 -10 32 -15 0 -5 16 -14 36 -20 20 -7 48 -18 62 -26 15 -8 34 -14
43 -14 8 0 24 -7 35 -15 10 -8 31 -15 45 -15 14 0 34 -9 43 -19 10 -10 34 -22
54 -26 20 -4 53 -15 74 -26 20 -10 48 -19 62 -19 14 0 28 -4 31 -10 3 -5 15
-10 26 -10 10 0 19 -4 19 -9 0 -5 18 -11 40 -15 22 -3 40 -10 40 -15 0 -5 43
-19 95 -31 52 -12 98 -26 101 -31 3 -5 16 -9 30 -9 13 0 32 -4 42 -9 36 -18
119 -43 167 -51 28 -5 68 -17 90 -28 22 -11 58 -23 80 -27 22 -4 51 -13 65
-20 14 -7 48 -15 75 -18 114 -15 189 -28 199 -36 6 -5 22 -11 36 -14 14 -3 54
-13 90 -22 36 -9 106 -25 155 -35 50 -10 117 -26 150 -35 33 -9 74 -20 90 -24
50 -12 37 -35 -30 -49 -33 -8 -69 -17 -80 -22 -36 -16 -174 -51 -270 -69 -22
-4 -54 -15 -72 -24 -29 -16 -86 -27 -218 -44 -27 -3 -69 -14 -93 -25 -24 -10
-51 -18 -60 -18 -9 0 -30 -7 -47 -16 -16 -9 -61 -25 -100 -34 -38 -10 -86 -24
-105 -31 -58 -20 -62 -21 -145 -45 -151 -42 -180 -51 -245 -78 -36 -16 -83
-31 -106 -35 -22 -4 -51 -15 -64 -24 -14 -9 -35 -17 -47 -17 -12 0 -38 -9 -57
-19 -18 -11 -49 -24 -67 -30 -64 -19 -124 -42 -184 -70 -33 -15 -81 -34 -107
-42 -27 -7 -48 -17 -48 -21 0 -4 -6 -8 -13 -8 -18 0 -67 -24 -67 -32 0 -5 -10
-8 -23 -8 -12 0 -39 -11 -59 -25 -20 -14 -44 -25 -52 -25 -9 0 -16 -4 -16 -10
0 -5 -9 -10 -19 -10 -11 0 -23 -4 -26 -10 -3 -5 -13 -10 -22 -10 -21 0 -102
-38 -128 -60 -11 -9 -36 -23 -55 -31 -38 -15 -51 -23 -83 -56 -35 -34 -44 -47
-58 -89 -8 -21 -24 -50 -36 -64 -13 -14 -23 -29 -23 -33 0 -9 -24 -68 -41 -99
-5 -10 -9 -25 -9 -33 0 -8 -4 -15 -10 -15 -5 0 -10 -7 -10 -16 0 -9 -8 -28
-19 -42 -10 -15 -22 -38 -25 -52 -8 -27 -48 -112 -56 -120 -3 -3 -12 -25 -20
-50 -7 -25 -28 -76 -46 -115 -17 -38 -35 -85 -39 -102 -3 -18 -11 -35 -16 -38
-5 -4 -9 -14 -9 -24 0 -10 -11 -40 -25 -67 -14 -27 -25 -61 -25 -75 0 -15 -7
-32 -15 -39 -8 -7 -17 -28 -20 -49 -4 -20 -21 -74 -40 -121 -38 -96 -67 -190
-86 -270 -7 -30 -16 -59 -21 -65 -4 -5 -8 -18 -8 -30 0 -11 -7 -33 -15 -48 -8
-16 -20 -57 -26 -92 -6 -35 -17 -69 -25 -76 -7 -6 -16 -27 -19 -48 -6 -35 -10
-48 -33 -101 -6 -14 -13 -45 -16 -70 -12 -110 -27 -183 -45 -223 -11 -23 -22
-55 -25 -72 -15 -81 -40 -192 -47 -210 -14 -34 -37 -118 -44 -158 -3 -21 -12
-37 -19 -37 -15 0 -36 49 -36 83 0 12 -9 46 -20 76 -10 31 -26 92 -34 136 -25
133 -35 177 -57 237 -11 32 -29 111 -39 176 -11 64 -26 135 -34 157 -8 22 -15
47 -16 56 0 8 -9 35 -21 58 -11 24 -23 60 -26 80 -5 33 -55 200 -74 246 -5 11
-18 58 -30 105 -11 47 -25 89 -30 95 -5 5 -9 15 -9 23 0 13 -21 66 -41 104 -5
10 -9 27 -9 38 0 10 -8 34 -18 52 -11 18 -22 49 -26 69 -3 19 -15 45 -26 57
-11 12 -20 34 -20 49 0 15 -7 37 -15 47 -8 11 -15 27 -15 36 0 8 -9 32 -20 53
-11 20 -20 43 -20 51 0 7 -7 19 -15 26 -8 6 -21 36 -30 66 -8 30 -20 54 -25
54 -6 0 -10 8 -10 18 0 9 -13 42 -29 72 -58 110 -131 261 -131 270 0 6 -4 10
-9 10 -5 0 -20 23 -32 50 -12 28 -26 50 -31 50 -4 0 -8 6 -8 13 0 7 -12 21
-27 32 -14 11 -32 26 -39 33 -7 7 -29 19 -48 27 -19 8 -50 25 -70 38 -19 13
-61 34 -93 46 -32 13 -74 31 -93 41 -112 59 -231 114 -305 141 -47 17 -88 35
-91 40 -3 5 -13 9 -22 9 -10 0 -35 9 -57 20 -22 11 -45 20 -53 20 -8 0 -28 7
-45 16 -59 31 -67 34 -85 34 -22 0 -72 22 -72 33 0 4 -15 7 -34 7 -19 0 -54
10 -78 21 -76 38 -102 48 -148 58 -81 18 -220 58 -227 64 -3 4 -14 7 -24 7 -9
0 -36 9 -60 20 -24 11 -57 20 -74 20 -16 0 -52 12 -80 25 -27 14 -59 25 -71
25 -11 0 -36 8 -55 17 -19 9 -59 21 -89 25 -154 21 -189 28 -235 46 -57 22
-121 39 -215 58 -36 6 -94 21 -130 32 -36 11 -83 24 -105 28 -59 13 -52 36 15
51 30 6 73 17 95 23 22 7 81 20 130 30 172 34 259 56 280 71 6 4 62 14 125 24
118 17 209 41 315 80 33 12 79 25 101 29 23 3 54 13 70 21 16 8 37 15 46 15
16 0 35 6 93 31 11 5 56 17 100 28 44 11 118 34 165 51 47 17 106 38 133 47
26 9 47 20 47 25 0 4 12 8 28 8 15 0 45 12 67 25 22 14 52 25 68 25 15 0 27 4
27 8 0 5 25 16 55 26 30 9 57 21 60 26 4 6 14 10 24 10 10 0 24 7 31 15 7 8
34 21 60 29 26 8 56 19 66 24 11 6 42 21 69 35 86 42 120 62 123 70 2 4 8 7
14 7 15 0 141 62 156 78 8 7 30 19 50 28 43 17 136 110 147 145 4 13 14 31 21
40 8 8 45 76 82 150 38 74 77 150 87 169 30 57 35 68 51 118 9 26 21 52 27 57
12 10 26 42 55 125 9 25 19 47 24 48 4 2 8 16 8 30 0 15 11 45 25 67 13 22 25
49 25 61 0 11 4 24 9 30 5 5 16 29 24 54 9 25 28 77 43 115 14 39 39 115 54
170 15 55 35 117 44 139 9 21 16 48 16 60 0 11 7 35 16 51 8 17 20 53 25 80 5
28 18 73 29 100 33 87 59 187 75 295 9 58 23 125 32 150 19 55 38 136 62 260
10 52 25 115 34 140 9 25 17 54 17 66 0 35 21 84 36 84 7 0 16 -16 19 -37z"/>
</g>
</svg>
