<?xml version="1.0" standalone="no"?>
<!DOCTYPE svg PUBLIC "-//W3C//DTD SVG 20010904//EN"
 "http://www.w3.org/TR/2001/REC-SVG-20010904/DTD/svg10.dtd">
<svg version="1.0" xmlns="http://www.w3.org/2000/svg"
 width="143.000000pt" height="143.000000pt" viewBox="0 0 143.000000 143.000000"
 preserveAspectRatio="xMidYMid meet">
<metadata>
Created by potrace 1.14, written by Peter Selinger 2001-2017
</metadata>
<g transform="translate(0.000000,143.000000) scale(0.100000,-0.100000)"
fill="#000000" stroke="none">
<path d="M560 1033 c-33 -80 -136 -184 -208 -209 -28 -10 -52 -22 -52 -26 0
-4 26 -19 58 -33 87 -39 180 -139 212 -227 5 -16 13 -28 17 -28 5 0 20 26 35
58 36 78 116 157 195 194 35 17 63 33 63 37 0 3 -23 14 -51 24 -71 26 -176
131 -209 210 -13 31 -27 57 -30 57 -3 0 -17 -26 -30 -57z m54 -9 c27 -67 127
-169 195 -201 l57 -27 -68 -33 c-69 -35 -142 -105 -179 -172 l-20 -36 7 35 c3
19 16 60 28 90 l22 55 92 31 93 31 -86 27 c-98 31 -111 44 -141 152 -18 60
-34 84 -34 49 0 -26 -41 -139 -56 -156 -16 -18 -70 -40 -144 -60 l-45 -12 60
-17 c119 -34 131 -42 155 -107 12 -32 24 -73 27 -90 3 -18 10 -33 14 -33 5 0
9 -4 9 -10 0 -24 -17 -6 -37 38 -41 89 -121 164 -216 203 l-39 15 46 18 c80
31 204 159 222 230 9 37 16 33 38 -20z"/>
<path d="M855 671 c-13 -42 -65 -99 -110 -121 -25 -12 -44 -24 -42 -26 2 -2
23 -14 48 -27 38 -20 90 -79 113 -129 5 -11 7 -11 12 0 23 50 75 109 113 129
25 13 46 25 48 27 2 2 -16 13 -41 25 -44 22 -85 65 -107 115 -14 31 -25 33
-34 7z m94 -104 c37 -31 36 -31 -8 -16 -31 11 -40 23 -55 79 -7 22 -5 22 12
-5 10 -17 34 -43 51 -58z m-103 31 c-13 -29 -49 -58 -75 -58 -4 0 13 22 38 48
25 27 47 48 49 47 1 -1 -4 -18 -12 -37z m-47 -99 c22 -8 36 -22 46 -47 9 -19
14 -36 13 -37 -2 -1 -24 20 -49 47 -25 26 -45 48 -44 48 1 0 16 -5 34 -11z
m164 -4 c-12 -8 -35 -32 -52 -52 l-30 -37 11 39 c9 27 21 42 43 51 41 18 54
17 28 -1z"/>
</g>
</svg>
