<svg id="visual" viewBox="0 0 900 600" width="900" height="600" xmlns="http://www.w3.org/2000/svg" xmlns:xlink="http://www.w3.org/1999/xlink" version="1.1"><rect width="900" height="600" fill="#fbfaf7"></rect><g><g transform="translate(111 510)"><path d="M88.1 -28.5C101.4 12.4 90.6 61.2 57.7 86.8C24.8 112.5 -30.3 115 -64.3 89.9C-98.3 64.9 -111.3 12.2 -97.1 -29.8C-82.8 -71.9 -41.4 -103.5 -2 -102.8C37.4 -102.1 74.7 -69.3 88.1 -28.5Z" fill="none" stroke="#dac5b2" stroke-width="11"></path></g><g transform="translate(843 350)"><path d="M68.8 -24.7C76.8 2.3 62.4 34.1 39.3 50C16.2 65.8 -15.6 65.6 -36.8 50.3C-58 35 -68.5 4.6 -60.6 -22.2C-52.7 -49.1 -26.4 -72.5 2 -73.2C30.4 -73.9 60.8 -51.7 68.8 -24.7Z" fill="none" stroke="#dac5b2" stroke-width="11"></path></g><g transform="translate(224 15)"><path d="M50.9 -16.1C57.6 3.9 48.8 29.5 31 42.3C13.2 55.2 -13.6 55.4 -31.1 42.7C-48.6 30 -56.8 4.5 -50 -15.7C-43.3 -35.9 -21.6 -50.7 0.2 -50.8C22.1 -50.9 44.3 -36.2 50.9 -16.1Z" stroke="#dac5b2" fill="none" stroke-width="11"></path></g></g></svg>