<svg id="visual" viewBox="0 0 900 600" width="900" height="600" xmlns="http://www.w3.org/2000/svg" xmlns:xlink="http://www.w3.org/1999/xlink" version="1.1"><rect width="900" height="600" fill="#fbfaf7"></rect><g><g transform="translate(482 85)"><path d="M82.2 -29.6C93.7 8.6 81.3 51.7 49.7 76.6C18.2 101.4 -32.5 107.9 -64.9 85.3C-97.2 62.8 -111.3 11 -97.4 -30.5C-83.6 -72.1 -41.8 -103.4 -3.2 -102.4C35.3 -101.4 70.7 -67.9 82.2 -29.6Z" stroke="#dac5b2" fill="none" stroke-width="11"></path></g><g transform="translate(762 331)"><path d="M74.1 -23.2C86.5 14.2 80.5 58.4 52.7 80.4C24.9 102.4 -24.7 102.3 -53.7 79.8C-82.8 57.3 -91.3 12.4 -78.9 -24.8C-66.6 -62.1 -33.3 -91.8 -1.2 -91.4C30.8 -91 61.7 -60.5 74.1 -23.2Z" stroke="#dac5b2" fill="none" stroke-width="11"></path></g><g transform="translate(79 411)"><path d="M70.8 -20.8C80.4 6.7 69.1 43.1 45.8 59.2C22.4 75.2 -13 70.9 -37.1 52.9C-61.3 34.9 -74.2 3.3 -66.2 -22C-58.1 -47.2 -29.1 -66.1 0.8 -66.4C30.6 -66.6 61.1 -48.2 70.8 -20.8Z" stroke="#dac5b2" fill="none" stroke-width="11"></path></g></g></svg>