<svg id="visual" viewBox="0 0 900 600" width="900" height="600" xmlns="http://www.w3.org/2000/svg" xmlns:xlink="http://www.w3.org/1999/xlink" version="1.1"><rect width="900" height="600" fill="#fbfaf7"></rect><g><g transform="translate(875 455)"><path d="M92.7 -32.9C104.1 5.1 86.3 49.7 51.9 75.7C17.5 101.8 -33.6 109.2 -64.4 87.1C-95.2 65.1 -105.7 13.7 -91.6 -28C-77.5 -69.7 -38.7 -101.6 0.9 -101.9C40.6 -102.2 81.3 -70.9 92.7 -32.9Z" stroke="#dac5b2" fill="none" stroke-width="11"></path></g><g transform="translate(285 154)"><path d="M94.4 -33.1C105.7 4 86.6 48.5 54.8 70.4C23.1 92.3 -21.5 91.6 -52.2 69.7C-82.9 47.9 -99.9 5 -88.9 -31.7C-77.9 -68.4 -38.9 -98.9 1.3 -99.3C41.6 -99.8 83.1 -70.1 94.4 -33.1Z" stroke="#dac5b2" fill="none" stroke-width="11"></path></g><g transform="translate(141 567)"><path d="M75.9 -23.2C88 12.5 80.2 56.1 52.4 77.5C24.7 99 -23.1 98.2 -51.3 76.4C-79.5 54.5 -88.2 11.5 -76.4 -23.8C-64.6 -59 -32.3 -86.6 -0.2 -86.5C31.9 -86.5 63.9 -58.8 75.9 -23.2Z" stroke="#dac5b2" fill="none" stroke-width="11"></path></g></g></svg>