<svg id="visual" viewBox="0 0 900 600" width="900" height="600" xmlns="http://www.w3.org/2000/svg" xmlns:xlink="http://www.w3.org/1999/xlink" version="1.1"><rect width="900" height="600" fill="#fbfaf7"></rect><g><g transform="translate(221 434)"><path d="M93.4 -28.9C106.3 9.7 92.2 58.5 61.3 79.9C30.4 101.3 -17.2 95.3 -49.3 71.2C-81.3 47.1 -97.8 5 -87 -30.5C-76.2 -66.1 -38.1 -95 1 -95.3C40.2 -95.6 80.4 -67.4 93.4 -28.9Z" stroke="#dac5b2" fill="none" stroke-width="11"></path></g><g transform="translate(442 101)"><path d="M64.1 -20.5C73 6.6 63.2 40 41.4 55.6C19.6 71.1 -14.3 68.7 -34.9 52.7C-55.6 36.6 -62.9 6.9 -54.9 -19C-46.9 -44.8 -23.4 -66.8 2.1 -67.5C27.6 -68.2 55.2 -47.5 64.1 -20.5Z" stroke="#dac5b2" fill="none" stroke-width="11"></path></g><g transform="translate(124 46)"><path d="M50.5 -14.3C58.1 6.9 51.8 34.8 34.7 47C17.6 59.3 -10.3 55.9 -27.7 42.3C-45.2 28.6 -52.2 4.7 -45.8 -14.9C-39.5 -34.4 -19.7 -49.6 0.9 -49.9C21.5 -50.2 42.9 -35.5 50.5 -14.3Z" stroke="#dac5b2" fill="none" stroke-width="11"></path></g></g></svg>